<svg width="26" height="23" viewBox="0 0 26 23" fill="none" xmlns="http://www.w3.org/2000/svg">
<path fill-rule="evenodd" clip-rule="evenodd" d="M12.9371 0H13.0629C14.15 0 15.0558 4.78223e-08 15.7741 0.0855814C16.5336 0.175442 17.2193 0.374419 17.7695 0.861163C18.3209 1.34898 18.5459 1.95553 18.6474 2.62628C18.72 3.09698 18.7381 3.65754 18.743 4.30581C19.5266 4.32828 20.2256 4.37 20.8472 4.44274C22.2645 4.61177 23.4121 4.96693 24.3179 5.76712C25.2224 6.56837 25.6239 7.58358 25.815 8.83735C26 10.0569 26 11.6134 26 13.5796V13.6994C26 15.6657 26 17.2233 25.815 18.4417C25.6239 19.6955 25.2224 20.7107 24.3179 21.512C23.4121 22.3121 22.2645 22.6673 20.8472 22.8363C19.4686 23 17.709 23 15.4863 23H10.5137C8.29098 23 6.53023 23 5.15284 22.8363C3.73553 22.6673 2.58791 22.3121 1.68214 21.512C0.777581 20.7107 0.376093 19.6955 0.185023 18.4417C0 17.2222 0 15.6657 0 13.6994V13.5796C0 11.6134 0 10.0558 0.185023 8.83735C0.376093 7.58358 0.777581 6.56837 1.68214 5.76712C2.58791 4.96693 3.73553 4.61177 5.15284 4.44274C5.85132 4.36704 6.55354 4.32134 7.25702 4.30581C7.26186 3.65754 7.28121 3.09698 7.35256 2.62628C7.45414 1.95553 7.67907 1.34898 8.2293 0.861163C8.78074 0.374419 9.46642 0.176512 10.2247 0.0855814C10.9442 4.78223e-08 11.8512 0 12.9371 0ZM9.07219 4.28121C9.5293 4.27907 10.0098 4.27836 10.5137 4.27907H15.4863C15.9902 4.27907 16.4707 4.27978 16.9278 4.28121C16.923 3.67144 16.906 3.21144 16.8504 2.84023C16.7742 2.34707 16.6448 2.13526 16.4876 1.99619C16.3304 1.85712 16.091 1.74265 15.5323 1.67526C14.9494 1.60679 14.1658 1.60465 13 1.60465C11.8342 1.60465 11.0506 1.60679 10.4665 1.67633C9.90902 1.74265 9.66958 1.85712 9.51237 1.99726C9.35516 2.1374 9.22577 2.34707 9.14958 2.84023C9.09395 3.21037 9.07702 3.67037 9.07219 4.28121ZM5.39349 6.03349C4.17693 6.17791 3.47553 6.44963 2.96279 6.90214C2.45247 7.35465 2.1453 7.97512 1.98205 9.0513C1.81516 10.15 1.81274 11.5995 1.81274 13.6395C1.81274 15.6796 1.81516 17.1291 1.98205 18.2288C2.1453 19.304 2.45247 19.9244 2.964 20.3769C3.47553 20.8294 4.17693 21.1012 5.39349 21.2456C6.63665 21.3932 8.27405 21.3953 10.5802 21.3953H15.4174C17.7235 21.3953 19.3621 21.3932 20.6053 21.2456C21.8207 21.1012 22.522 20.8294 23.0336 20.3769C23.5451 19.9244 23.8523 19.304 24.0155 18.2278C24.1824 17.1291 24.1848 15.6796 24.1848 13.6395C24.1848 11.5995 24.1824 10.151 24.0155 9.05023C23.8523 7.97512 23.5451 7.35465 23.0336 6.90214C22.522 6.44963 21.8207 6.17791 20.6041 6.03349C19.3621 5.88586 17.7235 5.88372 15.4174 5.88372H10.5802C8.27405 5.88372 6.63786 5.88586 5.39349 6.03349ZM13 8.55814C13.2405 8.55814 13.4712 8.64267 13.6413 8.79314C13.8114 8.9436 13.907 9.14768 13.907 9.36047V9.37116C15.2239 9.66428 16.3256 10.5832 16.3256 11.8562C16.3256 12.069 16.23 12.2731 16.0599 12.4236C15.8898 12.574 15.6591 12.6586 15.4186 12.6586C15.1781 12.6586 14.9474 12.574 14.7773 12.4236C14.6072 12.2731 14.5116 12.069 14.5116 11.8562C14.5116 11.4454 13.9965 10.8763 13 10.8763C12.0035 10.8763 11.4884 11.4454 11.4884 11.8562C11.4884 12.267 12.0035 12.8372 13 12.8372C14.6749 12.8372 16.3256 13.8642 16.3256 15.4228C16.3256 16.6959 15.2239 17.6137 13.907 17.9079V17.9186C13.907 18.1314 13.8114 18.3355 13.6413 18.4859C13.4712 18.6364 13.2405 18.7209 13 18.7209C12.7595 18.7209 12.5288 18.6364 12.3587 18.4859C12.1886 18.3355 12.093 18.1314 12.093 17.9186V17.9079C10.7761 17.6148 9.67442 16.6959 9.67442 15.4228C9.67442 15.21 9.76997 15.006 9.94007 14.8555C10.1102 14.705 10.3408 14.6205 10.5814 14.6205C10.8219 14.6205 11.0526 14.705 11.2227 14.8555C11.3928 15.006 11.4884 15.21 11.4884 15.4228C11.4884 15.8336 12.0035 16.4027 13 16.4027C13.9965 16.4027 14.5116 15.8336 14.5116 15.4228C14.5116 15.012 13.9965 14.4419 13 14.4419C11.3251 14.4419 9.67442 13.4149 9.67442 11.8562C9.67442 10.5832 10.7761 9.66428 12.093 9.37116V9.36047C12.093 9.14768 12.1886 8.9436 12.3587 8.79314C12.5288 8.64267 12.7595 8.55814 13 8.55814Z" fill="#424242"/>
</svg>
