<svg width="22" height="23" viewBox="0 0 22 23" fill="none" xmlns="http://www.w3.org/2000/svg">
<path d="M19.5229 13.619C19.3541 14.6194 18.9444 15.579 18.3196 16.4373C17.6948 17.2956 16.8686 18.034 15.893 18.6057C15.6477 17.7362 14.1394 17.0238 12.165 16.8248C12.3735 15.5781 12.8027 14.4152 13.097 13.7448C13.563 13.9962 14.1026 14.1429 14.7157 14.1429C19.0691 14.1429 18.3946 7.85714 18.3946 7.85714C18.3946 7.85714 17.7815 8.90476 15.942 8.90476H14.7157C14.1702 8.90463 13.6346 9.02884 13.164 9.26457C12.6935 9.5003 12.3051 9.83902 12.0389 10.2458C11.7727 10.6525 11.6384 11.1126 11.6497 11.5785C11.6611 12.0444 11.8178 12.4993 12.1037 12.8962C12.913 12.1733 13.7837 11.5238 14.7157 11C13.097 12.3933 11.8584 14.1429 11.0368 15.819C10.2642 14.5305 9.29543 13.5457 8.58417 13.0952C9.16053 13.3048 9.70011 13.619 10.2152 13.9333C10.3501 13.6819 10.4236 13.399 10.4236 13.0952C10.3623 10.2352 4.90524 10.4762 4.90524 10.4762C5.2854 10.9162 5.51839 11.4714 5.51839 12.0476V13.0952C5.51839 14.2476 6.62207 15.1905 7.97101 15.1905C8.58417 15.1905 9.13601 15.0019 9.56522 14.6667C9.84727 15.3267 10.0557 16.081 10.1661 16.8038C8.05686 16.961 6.43813 17.6943 6.1806 18.6162C3.93645 17.2857 2.45262 15.0752 2.45262 12.5714C2.45262 8.52762 6.30323 5.2381 11.0368 5.2381V8.38095L17.1683 4.19048L11.0368 0V3.14286C8.10965 3.14286 5.3024 4.13622 3.2326 5.90442C1.1628 7.67262 0 10.0708 0 12.5714C0 15.072 1.1628 17.4702 3.2326 19.2384C5.3024 21.0066 8.10965 22 11.0368 22C16.7146 22 21.3868 18.3333 22 13.619H19.5229Z" fill="#424242"/>
</svg>
