<svg width="23" height="23" viewBox="0 0 23 23" fill="none" xmlns="http://www.w3.org/2000/svg">
<path fill-rule="evenodd" clip-rule="evenodd" d="M22.8455 0.971247L22.2181 0.871126L22.0535 0.255088L23 0L22.8455 0.971247ZM14.4421 9.79091L13.9012 10.1251L13.8999 10.1238L13.898 10.1206L13.8916 10.1104L13.87 10.0741L13.7938 9.94205C13.7048 9.78586 13.6189 9.62789 13.5363 9.46823C13.2746 8.96639 13.0466 8.44763 12.8536 7.91538C12.6388 7.31337 12.4544 6.624 12.4258 5.95694C12.3978 5.29244 12.5212 4.57118 13.0144 4.00552C13.4575 3.49789 14.2927 3.03045 15.1706 2.62613C16.0802 2.20587 17.1507 1.80283 18.1645 1.454C19.4204 1.0238 20.6889 0.63164 21.9683 0.278046L22.0319 0.26019L22.0541 0.253812L22.2194 0.870488L22.8468 0.97061L22.843 0.994205L22.8322 1.0618C22.7687 1.45303 22.7022 1.84376 22.6326 2.23393C22.4632 3.19344 22.2784 4.15015 22.0783 5.10367C21.852 6.17568 21.5888 7.29934 21.3098 8.23998C21.1855 8.67006 21.0397 9.09361 20.8731 9.50904C20.7282 9.85979 20.5565 10.2003 20.348 10.4401C19.9018 10.9516 19.207 11.1116 18.6 11.1524C17.9669 11.1952 17.2651 11.118 16.6339 11.0058C16.0709 10.9041 15.5134 10.7743 14.9634 10.6168C14.7383 10.5532 14.5145 10.4851 14.2921 10.4127L14.2521 10.3987L14.2413 10.3948L14.2381 10.3942H14.2368L14.4421 9.79091ZM14.4421 9.79091L13.9012 10.1251L14.0207 10.3196L14.2368 10.3942L14.4421 9.79091ZM14.8693 9.25969C15.5203 9.46276 16.1827 9.62673 16.8532 9.75074C17.4405 9.85469 18.0279 9.91336 18.5148 9.88019C19.029 9.84576 19.2871 9.71949 19.3907 9.60087C19.4568 9.52435 19.5649 9.34324 19.6984 9.02055C19.848 8.64619 19.9789 8.26457 20.0906 7.87712C20.3557 6.98431 20.6106 5.89827 20.8343 4.84029C21.049 3.81671 21.2457 2.7894 21.4242 1.75883L21.2278 1.81623C20.5228 2.02476 19.5706 2.31875 18.5771 2.66057C17.5816 3.00302 16.5563 3.39012 15.7014 3.78487C14.814 4.19428 14.2152 4.56607 13.9711 4.84603C13.776 5.06924 13.6755 5.41297 13.6965 5.9021C13.7168 6.38868 13.856 6.94158 14.0506 7.48428C14.2726 8.09838 14.5465 8.69234 14.8693 9.25969ZM2.70977 2.57639L2.54514 3.19243L1.9171 3.29255L1.76328 2.32194L2.70977 2.57639ZM8.86422 10.4414L9.40516 10.7749L9.40644 10.7736L9.40771 10.7711L9.41279 10.7628L9.43123 10.7322L9.49479 10.6238C9.79878 10.0913 10.0571 9.5338 10.2671 8.95741C10.4438 8.46254 10.5977 7.88923 10.6212 7.33059C10.6453 6.77386 10.5424 6.15272 10.1139 5.66168C9.73507 5.22675 9.03394 4.83902 8.322 4.50995C7.57764 4.16622 6.70361 3.83716 5.87789 3.55338C4.85515 3.2033 3.82216 2.88408 2.78033 2.59616L2.7282 2.58149L2.70977 2.57639L2.54514 3.19243L1.9171 3.29255L1.92028 3.31168L1.92918 3.36716L1.96351 3.57506C2.13498 4.6066 2.32805 5.6344 2.54259 6.6578C2.72693 7.5302 2.94179 8.4466 3.16935 9.21505C3.28377 9.59896 3.40327 9.95672 3.5285 10.2584C3.64737 10.5453 3.79293 10.838 3.976 11.0472C4.37011 11.5 4.97589 11.6339 5.47743 11.6671C6.0063 11.7028 6.58665 11.6384 7.10472 11.5472C7.75528 11.4305 8.39679 11.2677 9.02441 11.06L9.05682 11.0491L9.06636 11.0459L9.06954 11.0447L8.86422 10.4414ZM8.86422 10.4414L9.40516 10.7749L9.28566 10.9701L9.06954 11.0447L8.86422 10.4414ZM8.43642 9.90953C8.47668 9.83725 8.52372 9.74946 8.57754 9.64615C8.72882 9.35408 8.91698 8.95614 9.07017 8.52632C9.22591 8.09139 9.33524 7.65455 9.35113 7.27638C9.36766 6.89439 9.28757 6.65142 9.15726 6.50092C8.97737 6.29557 8.51334 6.00222 7.79059 5.66869C7.10154 5.35047 6.27264 5.03735 5.46535 4.75994C4.76212 4.51902 4.05383 4.29322 3.34098 4.08268L3.34352 4.09863C3.45158 4.71084 3.60541 5.53732 3.78658 6.39378C3.96774 7.25215 4.17433 8.13029 4.38791 8.85155C4.49534 9.2125 4.60086 9.52435 4.70256 9.76923C4.81062 10.0288 4.89199 10.1608 4.93267 10.208C4.98479 10.2673 5.15324 10.3674 5.56261 10.3948C5.94464 10.4203 6.41121 10.3744 6.88414 10.2909C7.40904 10.1963 7.92749 10.0694 8.43642 9.90953ZM7.04433 15.9889C6.88287 15.9978 6.80405 16.0208 6.78371 16.0297C6.49575 16.1605 5.62109 16.4666 4.86593 16.7248C4.47817 16.8581 4.10631 16.9831 3.83171 17.0756L3.81391 17.082V20.5276C3.92579 20.5225 4.04593 20.518 4.16861 20.5135C4.69493 20.4944 5.32106 20.4753 5.59248 20.4868C6.73158 20.532 7.58718 20.8024 8.37921 21.053L8.39637 21.0588C9.13882 21.2935 9.82661 21.509 10.7273 21.5773C10.9816 21.5964 11.2289 21.6213 11.4596 21.6442H11.4628C12.3489 21.7335 12.9324 21.7781 13.3844 21.6136C13.7359 21.4854 15.0231 20.8866 16.3211 20.2317C16.9631 19.9077 17.5925 19.578 18.0927 19.2955C18.3438 19.1539 18.5567 19.0276 18.7201 18.9218C18.801 18.8691 18.8663 18.8244 18.9159 18.7879L18.9731 18.7432L18.9909 18.7279C19.0545 18.6635 19.1218 18.439 19.0125 18.2279C18.9611 18.1292 18.876 18.0523 18.7729 18.0111C18.6457 17.9556 18.4296 17.9129 18.0864 17.9697C17.3121 18.0972 16.3872 18.4709 15.4636 18.8478L15.4509 18.8536C14.9971 19.0385 14.5419 19.2241 14.1383 19.3593C13.7505 19.4887 13.3202 19.6048 12.9451 19.5825C12.4303 19.5506 11.527 19.4167 10.782 19.2955C10.3539 19.226 9.92627 19.1533 9.49924 19.0774L9.41661 19.0627L9.38737 19.057L9.50814 17.7917L12.4131 17.8268H12.4195C12.4534 17.8232 12.487 17.8168 12.5199 17.8077C12.6203 17.7822 12.7926 17.719 13.0093 17.5654C13.0761 17.5175 13.1638 17.4295 13.2458 17.3115C13.2797 17.2622 13.3085 17.2142 13.3323 17.1674C12.9781 17.1446 12.6262 17.0947 12.2796 17.0182C12.0909 16.977 11.9037 16.9291 11.7183 16.8747L11.6967 16.8683L8.13893 16.0737L8.10524 16.068L7.97175 16.0476C7.82637 16.0261 7.6803 16.0098 7.53378 15.9985C7.371 15.9848 7.20752 15.9816 7.04433 15.9889ZM8.26352 15.4494L8.37858 14.8225L8.39002 14.8244L12.0247 15.6356L12.0514 15.6439L12.0565 15.6458L12.0807 15.6528L12.1811 15.6815C12.2694 15.7058 12.3966 15.7389 12.5479 15.7721C12.8568 15.8391 13.2433 15.9009 13.6005 15.9009C13.9584 15.9009 14.3474 16.0348 14.5572 16.4162C14.7364 16.7427 14.6919 17.096 14.629 17.3294C14.5705 17.5357 14.4834 17.7328 14.3703 17.9148C14.564 17.8383 14.7686 17.7558 14.9843 17.6674L15.0238 17.6508C15.8997 17.2937 16.9498 16.8651 17.8798 16.7115C18.9604 16.5342 19.7709 16.9232 20.1414 17.6425C20.4682 18.2771 20.3957 19.1137 19.8967 19.6226C19.7715 19.7502 19.5852 19.8796 19.4073 19.9951C19.1805 20.1389 18.9499 20.2765 18.7157 20.4077C18.1912 20.7036 17.5422 21.0435 16.8913 21.3719C15.606 22.0205 14.2521 22.655 13.8173 22.8132C13.0634 23.0874 12.1913 23 11.4164 22.9222L11.3357 22.9139C11.1012 22.8898 10.8664 22.8686 10.6314 22.8501C9.57616 22.7698 8.7676 22.5141 8.02896 22.2807L8.01307 22.2756C7.2185 22.0243 6.50275 21.8005 5.54163 21.7616C5.33059 21.7533 4.76231 21.7686 4.21438 21.789C3.90582 21.8002 3.59731 21.8127 3.28886 21.8266L3.20686 21.8304L2.54196 21.861V16.1624L3.09943 15.9768C3.55178 15.826 4.00352 15.6734 4.45465 15.5189C5.24541 15.2479 6.04253 14.9666 6.25992 14.8684C6.49321 14.7626 6.75828 14.7281 6.97059 14.7154C7.19625 14.7026 7.42827 14.7122 7.63104 14.7275C7.87509 14.7471 8.11815 14.7775 8.35951 14.8187L8.37286 14.8212H8.37667L8.37794 14.8219H8.37921L8.26352 15.4494Z" fill="#424242"/>
<path fill-rule="evenodd" clip-rule="evenodd" d="M18.5295 4.65917C18.593 4.7136 18.6451 4.78004 18.6829 4.85468C18.7208 4.92933 18.7436 5.01073 18.7501 5.09423C18.7566 5.17773 18.7466 5.26169 18.7208 5.34132C18.6949 5.42096 18.6537 5.4947 18.5994 5.55835C16.7045 7.77634 14.3456 11.0268 13.3044 13.6689C13.2737 13.7468 13.228 13.8178 13.1699 13.878C13.1118 13.9381 13.0425 13.9862 12.9658 14.0195C12.8892 14.0528 12.8068 14.0706 12.7233 14.0719C12.6399 14.0733 12.5569 14.0581 12.4793 14.0273C12.4017 13.9965 12.3309 13.9506 12.2709 13.8923C12.2109 13.834 12.163 13.7645 12.1298 13.6876C12.0966 13.6108 12.0789 13.5281 12.0775 13.4443C12.0762 13.3606 12.0913 13.2774 12.1221 13.1995C13.2427 10.3559 15.7142 6.97536 17.6332 4.72868C17.743 4.60031 17.8991 4.52094 18.0672 4.50803C18.2352 4.49511 18.4015 4.54971 18.5295 4.6598M5.96253 6.70497C5.89698 6.75688 5.84227 6.82124 5.80152 6.89436C5.76077 6.96749 5.73478 7.04796 5.72504 7.13117C5.7153 7.21438 5.722 7.29869 5.74475 7.3793C5.76751 7.45992 5.80587 7.53524 5.85765 7.60097C7.2828 9.41528 8.83889 11.7372 9.57752 13.6631C9.64094 13.8168 9.76172 13.9396 9.91409 14.0052C10.0665 14.0709 10.2384 14.0742 10.3931 14.0144C10.5479 13.9547 10.6733 13.8366 10.7425 13.6855C10.8117 13.5343 10.8193 13.362 10.7637 13.2053C9.95574 11.0982 8.30493 8.65512 6.85563 6.81147C6.75134 6.67865 6.59874 6.59282 6.43138 6.57284C6.26402 6.55287 6.09497 6.6004 5.96253 6.70497Z" fill="#424242"/>
<path d="M0 14.7097H3.81395V23H0V14.7097Z" fill="#424242"/>
</svg>
